<?xml version="1.0" standalone="no"?>
<!DOCTYPE svg PUBLIC "-//W3C//DTD SVG 20010904//EN"
 "http://www.w3.org/TR/2001/REC-SVG-20010904/DTD/svg10.dtd">
<svg version="1.0" xmlns="http://www.w3.org/2000/svg"
 width="1666.000000pt" height="892.000000pt" viewBox="0 0 1666.000000 892.000000"
 preserveAspectRatio="xMidYMid meet">

<g transform="translate(0.000000,892.000000) scale(0.100000,-0.100000)"
fill="#000000" stroke="none">
<path d="M11905 8883 c-294 -23 -538 -83 -784 -192 -440 -195 -834 -562 -1054
-982 -231 -439 -304 -954 -206 -1449 44 -220 163 -518 288 -719 176 -284 438
-546 723 -723 395 -246 908 -375 1347 -339 362 29 666 119 955 281 72 40 92
48 102 38 22 -24 554 -819 554 -827 0 -5 -54 -44 -119 -86 -146 -94 -157 -105
-139 -137 7 -14 186 -281 398 -594 212 -313 457 -676 545 -806 428 -635 499
-739 512 -750 12 -10 23 -8 56 11 64 37 560 361 576 377 11 10 12 19 4 36 -6
13 -132 202 -279 420 -148 219 -381 564 -519 768 -137 204 -340 504 -451 668
-146 216 -207 298 -222 300 -14 2 -69 -26 -148 -77 -70 -45 -130 -81 -133 -81
-4 0 -131 182 -282 405 -151 223 -278 412 -284 420 -5 8 -7 16 -5 17 288 209
480 410 641 669 203 326 319 737 319 1128 0 1002 -690 1891 -1670 2150 -241
63 -514 91 -725 74z m505 -112 c456 -83 849 -284 1163 -594 340 -337 550 -747
623 -1218 21 -142 21 -439 0 -584 -71 -469 -290 -897 -622 -1214 -321 -307
-708 -498 -1169 -578 -140 -24 -519 -24 -660 0 -139 24 -348 80 -458 123 -734
288 -1239 914 -1363 1689 -25 150 -25 448 0 604 51 336 176 641 374 920 77
108 262 305 370 394 313 255 718 427 1122 477 132 16 489 5 620 -19z m1965
-4983 c180 -268 556 -827 1008 -1496 97 -144 177 -266 177 -270 0 -4 -111 -79
-246 -166 -175 -113 -251 -157 -260 -150 -8 5 -100 137 -205 294 -300 446
-601 893 -1023 1518 -87 129 -154 238 -150 242 15 14 488 320 496 320 4 0 96
-132 203 -292z"/>
<path d="M12053 8525 c-3 -11 -19 -57 -33 -104 l-27 -86 -113 -5 -114 -5 87
-63 c48 -35 87 -69 87 -75 0 -7 -14 -54 -31 -106 -16 -51 -28 -95 -26 -98 3
-2 42 23 88 56 45 34 88 61 94 61 6 0 48 -28 94 -61 45 -34 84 -60 86 -57 3 2
-9 44 -25 93 -17 49 -30 97 -30 106 0 11 35 43 87 81 l87 63 -114 5 -113 5
-33 99 c-19 54 -36 101 -39 104 -2 3 -8 -3 -12 -13z"/>
<path d="M11294 8188 l-31 -93 -96 1 c-53 0 -97 -2 -97 -5 0 -3 34 -30 75 -59
41 -30 75 -59 75 -66 0 -7 -11 -46 -25 -86 -14 -40 -25 -79 -25 -87 0 -7 34
12 75 43 49 35 82 53 93 50 9 -3 46 -28 82 -55 36 -27 66 -46 68 -42 1 5 -9
42 -23 84 -14 41 -25 82 -25 90 0 8 35 40 77 70 l77 56 -100 3 -99 3 -30 92
c-16 51 -32 93 -35 93 -3 0 -19 -42 -36 -92z"/>
<path d="M12764 8188 l-30 -93 -97 0 c-53 0 -97 -2 -97 -5 0 -3 34 -30 75 -59
41 -30 75 -59 75 -66 0 -6 -13 -50 -29 -98 -17 -48 -28 -87 -26 -87 2 0 37 25
77 55 40 30 79 55 86 55 7 0 45 -25 85 -55 40 -30 73 -51 75 -47 1 4 -9 41
-23 82 -14 40 -25 81 -25 91 0 9 33 40 77 72 l77 56 -100 3 -99 3 -30 92 c-16
51 -32 93 -35 93 -3 0 -19 -42 -36 -92z"/>
<path d="M11926 7819 c-146 -20 -293 -75 -403 -150 -339 -232 -483 -720 -333
-1131 57 -157 146 -299 408 -655 129 -176 213 -310 294 -473 63 -128 158 -385
158 -430 0 -35 19 -22 30 23 81 314 224 584 520 982 304 408 391 602 391 872
1 137 -9 197 -52 329 -102 313 -351 543 -671 619 -81 19 -254 27 -342 14z
m409 -509 l270 -270 -540 0 -539 0 265 269 c145 147 266 269 269 270 3 0 127
-120 275 -269z m115 -718 c0 -208 -2 -381 -4 -383 -2 -2 -176 -3 -385 -1
l-381 2 0 380 0 380 385 0 385 0 0 -378z"/>
<path d="M11810 6735 l0 -105 110 0 110 0 0 105 0 105 -110 0 -110 0 0 -105z"/>
<path d="M12100 6735 l0 -105 110 0 110 0 0 105 0 105 -110 0 -110 0 0 -105z"/>
<path d="M11810 6440 l0 -110 110 0 110 0 0 110 0 110 -110 0 -110 0 0 -110z"/>
<path d="M12102 6443 l3 -108 108 -3 107 -3 0 111 0 110 -110 0 -111 0 3 -107z"/>
<path d="M10879 7618 c-13 -40 -27 -78 -32 -85 -5 -8 -42 -13 -95 -15 l-86 -3
72 -53 c40 -30 72 -55 72 -56 0 -1 -11 -36 -25 -76 -14 -40 -25 -79 -25 -87 0
-7 31 10 70 38 43 32 76 49 85 45 9 -3 45 -27 81 -52 35 -25 64 -42 64 -37 0
5 -11 43 -25 83 -14 40 -25 78 -25 84 0 6 32 34 72 61 l71 50 -94 5 -94 5 -25
83 c-13 45 -28 82 -32 82 -4 0 -17 -33 -29 -72z"/>
<path d="M13186 7605 l-26 -84 -91 -3 -91 -3 66 -48 c36 -27 68 -53 72 -58 3
-5 -7 -46 -21 -90 -15 -44 -25 -82 -23 -84 2 -2 32 19 68 45 36 27 72 49 80
49 8 0 44 -22 80 -49 36 -26 66 -47 68 -45 2 2 -8 40 -23 84 -14 44 -24 85
-20 91 3 5 36 31 73 57 l67 48 -92 3 -92 3 -28 84 c-15 47 -30 85 -34 85 -4 0
-19 -38 -33 -85z"/>
<path d="M6835 7600 c-310 -47 -651 -138 -813 -216 -89 -43 -113 -64 -157
-139 -7 -12 -9 -4 -7 32 10 137 -69 228 -232 268 -51 12 -113 17 -230 17 -335
0 -765 -67 -1044 -163 -312 -108 -471 -243 -475 -402 -1 -72 22 -110 93 -156
93 -60 172 -76 381 -76 l176 0 6 -790 c9 -1042 15 -1132 87 -1274 57 -114 119
-155 231 -156 67 0 81 3 124 30 62 39 108 106 142 208 l27 82 1 675 c1 681 3
734 45 1170 10 108 20 130 61 130 28 0 218 69 293 107 95 48 150 86 215 147
29 28 51 44 48 36 -151 -403 -196 -953 -141 -1728 24 -352 42 -474 76 -529 45
-75 176 -167 323 -225 70 -29 91 -32 170 -32 78 1 106 6 211 41 319 107 685
293 802 406 69 66 87 108 87 202 -1 64 -5 90 -25 130 -56 115 -156 173 -273
161 -87 -9 -262 -55 -492 -130 -206 -68 -214 -69 -215 -21 -1 11 -5 52 -9 91
-5 46 -4 97 3 140 l11 69 105 37 c231 83 280 103 395 160 257 129 323 208 313
374 -6 97 -38 159 -100 197 -121 75 -358 45 -630 -81 l-88 -41 0 38 c0 34 46
310 52 316 2 2 68 30 148 63 332 138 609 276 699 350 29 24 54 57 74 100 26
55 29 72 24 122 -10 112 -81 220 -171 261 -53 24 -159 24 -321 -1z"/>
<path d="M266 7546 c-82 -31 -144 -122 -170 -251 -20 -97 -26 -238 -36 -945
-6 -379 -15 -684 -25 -795 -26 -309 -30 -537 -12 -633 30 -153 92 -250 189
-292 108 -46 267 -10 335 77 110 140 153 282 184 601 11 111 14 123 33 127 36
8 348 36 353 32 2 -2 -1 -51 -6 -108 -6 -57 -13 -178 -17 -269 -5 -135 -3
-178 10 -234 22 -92 59 -158 123 -216 68 -63 131 -84 225 -78 87 7 134 38 195
128 91 135 129 332 158 810 8 140 22 372 31 515 10 156 17 421 18 665 1 359
-1 413 -17 475 -43 167 -139 300 -239 330 -208 62 -366 -54 -397 -290 -10 -77
-25 -402 -37 -817 l-6 -196 -87 -12 c-47 -7 -137 -20 -199 -29 -62 -10 -115
-14 -117 -11 -2 4 0 72 5 151 6 79 10 299 10 489 1 303 -2 356 -18 435 -34
158 -107 272 -208 321 -68 33 -214 44 -278 20z"/>
<path d="M2970 7531 c-128 -18 -251 -70 -350 -146 -344 -266 -540 -776 -540
-1405 -1 -715 231 -1227 630 -1395 134 -56 345 -69 500 -29 292 75 525 326
651 704 78 234 109 452 109 770 0 509 -100 924 -285 1185 -55 77 -179 196
-247 235 -119 69 -316 103 -468 81z m176 -892 c64 -61 111 -173 141 -339 24
-131 23 -441 -1 -600 -20 -134 -64 -274 -107 -343 -41 -67 -102 -94 -165 -77
-81 23 -146 120 -189 283 -84 317 -69 758 32 962 60 120 109 158 196 152 49
-3 62 -8 93 -38z"/>
<path d="M7852 7503 c-122 -60 -203 -268 -261 -668 -91 -627 -96 -1198 -15
-1755 18 -127 61 -321 81 -372 20 -50 69 -92 135 -114 77 -27 310 -25 473 5
483 88 878 252 1019 424 49 60 66 106 66 177 0 109 -59 183 -174 215 -80 23
-302 23 -440 1 -104 -17 -325 -71 -436 -105 -36 -12 -69 -21 -74 -21 -6 0 -6
180 0 453 5 248 9 634 9 857 0 350 -3 419 -18 510 -51 285 -137 410 -282 410
-27 0 -65 -8 -83 -17z"/>
<path d="M2339 4356 c-152 -32 -341 -147 -494 -301 -143 -142 -250 -308 -321
-495 -26 -69 -28 -86 -29 -215 l0 -140 36 -76 c41 -85 125 -215 234 -359 184
-245 225 -323 225 -435 0 -127 -42 -189 -281 -425 -229 -226 -279 -305 -279
-438 0 -164 114 -262 305 -262 173 0 363 105 557 308 165 174 294 382 365 587
25 73 27 93 27 230 0 145 -1 153 -32 234 -46 122 -106 211 -239 355 -197 213
-245 303 -228 429 20 149 127 272 367 419 134 82 202 150 224 225 53 184 -87
357 -299 369 -40 2 -102 -3 -138 -10z"/>
<path d="M4215 4314 c-522 -77 -920 -190 -1028 -292 -92 -87 -187 -346 -231
-627 -51 -332 -63 -797 -32 -1245 29 -408 47 -536 86 -590 39 -54 124 -120
220 -169 172 -88 261 -100 416 -55 201 57 547 211 719 319 182 115 225 168
233 289 3 56 -1 83 -18 128 -25 66 -92 141 -148 165 -90 39 -254 9 -641 -120
l-190 -63 -8 46 c-10 57 -10 247 -1 280 6 22 28 32 180 85 209 72 461 194 535
260 31 27 63 68 79 100 24 50 26 63 22 143 -6 126 -50 194 -145 226 -59 20
-189 21 -283 1 -80 -17 -237 -74 -322 -116 -32 -16 -60 -29 -63 -29 -3 0 -5
12 -5 28 0 40 49 315 58 323 4 4 95 44 202 89 318 134 579 270 659 344 131
122 95 361 -69 450 -43 23 -68 30 -124 32 -39 1 -84 0 -101 -2z"/>
<path d="M6032 4309 c-212 -27 -527 -97 -707 -155 -176 -58 -269 -106 -309
-162 -155 -213 -240 -611 -253 -1192 -3 -145 -1 -344 6 -460 28 -512 48 -688
89 -763 45 -85 181 -179 344 -238 75 -28 91 -31 168 -26 233 15 869 308 1016
469 51 55 69 104 68 188 -1 78 -25 139 -80 199 -109 121 -219 115 -686 -38
-118 -39 -220 -71 -225 -71 -6 0 -16 49 -22 113 -9 88 -8 125 2 172 l13 60
109 38 c268 93 471 185 575 262 89 65 136 167 127 271 -11 113 -46 170 -132
210 -42 20 -66 24 -146 24 -147 0 -232 -25 -536 -157 -10 -4 -11 7 -7 43 10
75 51 304 55 308 2 2 83 36 179 76 306 127 576 263 668 337 81 66 114 169 88
273 -19 75 -57 133 -114 177 -69 52 -136 62 -290 42z"/>
<path d="M9962 4309 c-360 -46 -815 -170 -955 -259 -106 -67 -203 -292 -257
-595 -69 -387 -78 -944 -24 -1542 19 -211 37 -307 69 -355 36 -54 125 -121
230 -172 121 -60 174 -76 249 -76 207 0 848 286 1021 455 54 53 64 68 79 126
15 55 16 75 7 117 -26 123 -98 209 -199 238 -86 25 -198 3 -554 -113 -131 -42
-240 -75 -242 -72 -12 11 -27 198 -21 248 12 95 11 93 147 140 366 127 579
244 647 355 52 83 48 232 -7 311 -45 65 -100 89 -214 93 -143 6 -282 -29 -485
-123 -42 -19 -78 -33 -81 -30 -3 3 8 82 24 176 l29 172 200 83 c110 46 277
122 370 169 308 154 367 210 374 357 3 72 0 85 -28 143 -70 141 -169 182 -379
154z"/>
<path d="M11455 4270 c-402 -81 -755 -235 -834 -364 -34 -54 -53 -195 -54
-401 -2 -205 -2 -1008 -1 -1470 1 -336 11 -431 59 -582 28 -89 85 -181 134
-217 46 -34 118 -49 180 -35 73 15 119 60 169 166 66 138 99 312 118 614 l6
107 130 51 c71 28 133 49 138 46 10 -6 71 -161 131 -330 168 -478 303 -657
484 -643 118 10 185 71 220 203 49 179 -28 519 -192 850 -57 114 -116 218
-140 247 -13 14 -9 21 34 60 191 172 322 368 375 563 19 68 22 106 21 260 0
163 -2 189 -26 280 -85 316 -281 524 -561 595 -101 26 -265 26 -391 0z m181
-756 c67 -32 100 -127 82 -239 -24 -151 -158 -292 -372 -389 -43 -20 -85 -36
-92 -36 -11 0 -14 40 -14 218 0 119 -3 253 -6 297 l-7 80 49 23 c101 46 157
61 242 61 58 1 95 -4 118 -15z"/>
<path d="M6948 4267 c-110 -32 -192 -137 -217 -282 -14 -82 -28 -343 -51 -980
-11 -297 -29 -634 -39 -750 -51 -547 -35 -722 77 -838 62 -65 104 -82 202 -82
75 0 91 3 131 27 25 15 61 44 79 65 46 51 95 162 114 255 17 83 66 512 66 581
l0 42 111 68 c61 37 113 66 115 65 1 -2 82 -167 178 -367 212 -439 275 -548
376 -652 96 -99 164 -133 260 -132 86 0 134 23 171 81 42 66 53 137 39 235
-15 101 -48 218 -94 325 -42 101 -299 595 -407 782 l-77 134 62 71 c287 323
477 720 502 1049 11 135 -32 239 -113 272 -18 8 -63 14 -100 14 -84 0 -130
-21 -205 -94 -103 -101 -171 -200 -299 -439 -85 -156 -161 -276 -237 -372 -59
-75 -247 -271 -272 -285 -13 -7 -15 46 -15 448 0 451 0 458 -23 532 -35 111
-84 185 -144 216 -40 21 -135 26 -190 11z"/>
<path d="M12745 1041 c-51 -24 -112 -85 -136 -136 -10 -22 -19 -62 -19 -90 -1
-87 -5 -95 -61 -95 -37 0 -49 -4 -49 -15 0 -11 12 -15 49 -15 46 0 49 -1 55
-31 3 -17 6 -87 6 -156 l0 -124 -45 -41 c-25 -23 -45 -45 -45 -50 0 -5 69 -7
152 -6 131 3 153 5 156 19 2 12 -13 21 -55 35 l-58 19 0 165 0 165 78 3 c58 2
77 6 77 17 0 11 -19 15 -77 17 l-78 3 1 96 c0 74 4 103 18 123 35 55 91 51
157 -9 22 -20 44 -33 49 -30 6 4 10 35 10 71 0 60 -2 65 -26 74 -40 16 -115
11 -159 -9z"/>
<path d="M4785 1005 c-48 -47 -23 -115 43 -115 58 0 96 86 54 123 -27 24 -69
21 -97 -8z"/>
<path d="M11053 980 c-126 -3 -186 -9 -195 -17 -15 -16 -4 -27 45 -43 l37 -12
0 -268 0 -269 -40 -32 c-62 -50 -55 -59 53 -61 131 -2 221 3 225 13 7 19 1 24
-60 44 l-63 20 -3 250 c-1 138 0 260 3 271 11 46 126 63 185 28 55 -32 74 -66
78 -143 4 -64 2 -70 -26 -102 -27 -31 -35 -34 -102 -37 -79 -5 -95 -18 -64
-53 16 -18 26 -20 63 -15 94 13 203 82 235 150 39 82 7 199 -68 245 -50 31
-102 37 -303 31z"/>
<path d="M14775 973 c-93 -50 -155 -130 -155 -200 0 -37 6 -49 43 -86 24 -25
92 -71 157 -107 166 -92 193 -126 156 -198 -20 -38 -60 -57 -116 -56 -63 2
-104 25 -172 97 -31 32 -61 56 -67 52 -7 -3 -11 -41 -11 -90 l0 -83 30 -10
c48 -17 188 -35 233 -30 24 3 59 13 78 22 70 33 159 142 159 194 0 22 -42 87
-73 113 -12 10 -58 37 -102 60 -185 97 -219 132 -196 202 18 53 45 72 105 72
63 0 114 -32 170 -104 54 -72 68 -62 64 48 l-3 86 -65 17 c-85 22 -195 22
-235 1z"/>
<path d="M3990 971 c-68 -7 -73 -28 -12 -48 l42 -15 0 -271 -1 -272 -45 -34
c-33 -24 -43 -36 -35 -44 7 -7 78 -11 198 -11 l188 -1 62 33 c78 43 156 121
191 192 24 48 27 67 27 150 0 88 -3 101 -33 162 -19 40 -49 81 -74 102 -66 57
-109 66 -292 64 -89 -1 -186 -4 -216 -7z m343 -67 c42 -21 95 -71 114 -109 63
-119 55 -291 -18 -378 -58 -70 -136 -95 -234 -74 l-60 12 -3 250 c-1 138 0
260 3 273 3 13 16 27 28 32 37 15 135 11 170 -6z"/>
<path d="M8796 967 c-27 -19 -16 -31 54 -57 33 -12 60 -26 60 -30 0 -7 -163
-266 -174 -277 -2 -2 -42 60 -90 138 l-87 141 40 35 c23 19 41 39 41 44 0 5
-61 9 -140 9 -133 0 -140 -1 -140 -20 0 -11 12 -26 28 -34 20 -10 65 -73 145
-201 l117 -187 0 -76 0 -76 -47 -42 c-27 -23 -46 -44 -43 -47 8 -9 265 -11
279 -3 23 15 10 34 -31 48 l-43 13 -3 96 -3 96 114 179 c87 138 123 185 155
207 23 16 42 33 42 38 0 5 -44 9 -99 9 -54 0 -111 3 -127 6 -18 3 -37 0 -48
-9z"/>
<path d="M14016 821 c-48 -54 -86 -106 -86 -114 0 -12 12 -17 48 -19 l47 -3 5
-170 c5 -186 10 -203 66 -230 18 -8 52 -15 77 -15 38 0 51 6 91 41 42 37 46
44 33 57 -13 13 -18 13 -38 -2 -31 -21 -93 -21 -110 1 -11 12 -14 54 -14 167
l0 151 83 3 c64 2 82 6 82 17 0 12 -16 15 -79 15 -93 0 -91 -3 -91 116 0 67
-3 84 -14 84 -8 0 -53 -44 -100 -99z"/>
<path d="M15255 823 c-46 -54 -85 -106 -85 -115 0 -18 6 -20 65 -22 l30 -1 5
-170 c4 -140 8 -175 23 -196 23 -34 58 -49 113 -49 38 0 53 6 90 36 43 36 54
57 34 69 -5 3 -20 -1 -34 -10 -15 -10 -40 -15 -63 -13 -57 5 -63 26 -60 193
l2 140 78 5 c42 3 77 10 77 15 0 6 -35 12 -77 15 l-78 5 -3 98 c-2 76 -6 97
-17 97 -8 0 -53 -44 -100 -97z"/>
<path d="M4790 741 c-44 -17 -76 -35 -78 -44 -2 -10 13 -27 37 -43 l41 -27 0
-128 0 -128 -40 -32 c-67 -54 -58 -60 87 -57 110 3 128 5 131 20 2 11 -8 20
-32 28 l-36 11 -2 212 c-3 179 -5 212 -18 214 -8 1 -49 -11 -90 -26z"/>
<path d="M9621 730 c-49 -24 -81 -45 -79 -53 3 -6 21 -23 41 -36 l37 -24 0
-119 c0 -172 25 -218 123 -226 51 -4 55 -2 107 43 l55 46 3 -40 3 -41 89 0
c72 0 89 3 94 16 8 20 10 18 -36 37 l-38 16 0 210 c0 167 -3 211 -13 211 -22
0 -177 -79 -177 -89 0 -6 18 -23 40 -37 l40 -27 0 -103 0 -103 -31 -22 c-20
-14 -47 -22 -76 -23 -70 -2 -73 7 -73 221 0 144 -3 183 -13 183 -7 0 -50 -18
-96 -40z"/>
<path d="M5184 740 c-50 -25 -78 -54 -98 -100 -12 -30 -12 -40 -1 -67 14 -33
38 -51 162 -122 74 -42 92 -66 74 -99 -31 -57 -142 -21 -197 63 -9 14 -25 25
-36 25 -17 0 -19 -7 -16 -72 l3 -73 55 -12 c77 -16 156 -15 189 1 15 8 46 35
69 60 76 82 53 130 -103 215 -65 35 -93 56 -100 75 -14 40 4 60 55 64 41 3 45
1 100 -58 31 -33 59 -57 63 -54 4 4 7 38 7 75 l0 68 -37 10 c-85 23 -146 23
-189 1z"/>
<path d="M5738 751 c-67 -22 -139 -85 -174 -154 -12 -21 -17 -56 -17 -103 0
-84 25 -139 86 -188 34 -27 47 -31 115 -34 l77 -4 72 59 c65 52 70 59 57 74
-14 16 -19 14 -66 -17 -123 -83 -228 -9 -228 163 0 89 28 133 84 133 45 0 95
-22 131 -58 17 -17 40 -32 50 -34 18 -3 20 4 23 65 l3 68 -33 14 c-44 18 -145
27 -180 16z"/>
<path d="M6290 751 c-98 -32 -178 -107 -205 -193 -45 -140 55 -287 195 -288
89 0 194 71 242 163 68 132 -19 310 -158 322 -27 2 -60 1 -74 -4z m60 -86 c48
-25 74 -87 75 -177 0 -103 -20 -132 -92 -136 -42 -2 -55 1 -82 23 -35 30 -61
103 -61 172 0 45 30 117 52 126 26 11 80 7 108 -8z"/>
<path d="M6668 724 c-38 -19 -68 -40 -68 -47 0 -7 19 -24 42 -37 40 -24 45
-34 108 -190 l67 -165 37 0 37 0 115 223 c63 123 112 228 109 233 -4 5 -49 9
-100 9 -83 0 -96 -2 -105 -19 -9 -17 -3 -25 45 -58 30 -21 55 -43 55 -49 0
-22 -113 -245 -120 -237 -15 18 -109 262 -121 316 -6 31 -17 57 -23 57 -6 -1
-41 -17 -78 -36z"/>
<path d="M7367 746 c-115 -43 -197 -147 -197 -249 0 -91 54 -182 127 -213 18
-8 61 -14 95 -14 63 0 64 1 138 61 41 33 76 67 78 75 6 24 -27 28 -51 6 -99
-90 -201 -81 -248 22 -35 78 -39 76 141 76 l160 0 0 48 c0 60 -38 142 -78 171
-40 28 -115 36 -165 17z m72 -76 c19 -9 51 -77 51 -105 0 -12 -19 -15 -101
-15 l-102 0 6 42 c7 54 43 88 93 88 20 0 43 -4 53 -10z"/>
<path d="M7778 724 c-38 -19 -68 -39 -68 -44 0 -5 18 -22 40 -36 l40 -27 0
-127 0 -127 -40 -32 c-22 -17 -40 -36 -40 -42 0 -6 58 -8 152 -7 131 3 153 5
156 19 2 12 -10 20 -45 29 -26 7 -54 17 -60 23 -9 7 -13 47 -13 138 l0 129 33
20 c41 25 73 25 89 0 7 -11 18 -20 24 -20 19 0 76 71 70 87 -3 8 -6 16 -6 19
0 2 -13 10 -30 19 -49 25 -77 19 -129 -30 -26 -25 -50 -45 -53 -45 -3 0 -11
20 -17 45 -6 25 -17 45 -24 45 -6 -1 -42 -17 -79 -36z"/>
<path d="M9207 746 c-196 -73 -262 -292 -127 -423 43 -42 90 -57 156 -50 93
10 184 80 227 176 40 90 4 216 -78 273 -49 35 -123 45 -178 24z m95 -92 c59
-53 79 -200 35 -265 -20 -29 -29 -34 -69 -37 -91 -6 -138 59 -138 190 0 68 3
80 27 108 25 30 30 32 75 28 28 -3 57 -13 70 -24z"/>
<path d="M10235 726 c-33 -17 -61 -38 -63 -46 -2 -10 13 -25 38 -39 l40 -22 0
-124 0 -124 -40 -32 c-66 -53 -57 -59 88 -61 154 -2 164 -1 173 14 12 19 3 26
-56 43 -45 13 -55 19 -55 38 0 12 -2 68 -5 125 l-5 103 29 30 c35 35 80 39 99
9 7 -11 18 -20 26 -20 16 0 66 62 66 83 0 23 -36 48 -78 54 -37 5 -43 2 -84
-41 -25 -25 -49 -46 -55 -46 -6 0 -14 20 -17 45 -9 54 -17 55 -101 11z"/>
<path d="M11714 746 c-127 -40 -214 -161 -201 -277 15 -126 98 -199 226 -199
57 0 61 2 135 62 42 34 76 67 76 74 0 28 -23 24 -81 -15 -48 -32 -71 -41 -104
-41 -66 0 -112 45 -130 127 l-6 32 162 3 163 3 -3 48 c-5 91 -55 169 -119 187
-47 13 -67 12 -118 -4z m68 -77 c21 -11 48 -66 48 -99 0 -19 -6 -20 -100 -20
-94 0 -100 1 -100 20 0 32 26 87 47 99 24 14 79 14 105 0z"/>
<path d="M12118 724 c-38 -19 -68 -38 -68 -44 0 -5 19 -22 43 -39 l43 -29 -4
-124 -4 -123 -39 -33 c-21 -19 -39 -38 -39 -43 0 -5 68 -9 155 -9 97 0 155 4
155 10 0 6 0 13 -1 18 -1 4 -26 16 -57 27 l-57 20 -3 115 c-1 63 0 125 3 137
11 46 108 72 120 33 3 -11 12 -20 20 -20 20 0 77 70 71 87 -3 8 -6 16 -6 19 0
2 -13 10 -30 19 -50 26 -78 19 -128 -30 -24 -25 -48 -45 -52 -45 -4 0 -11 19
-16 42 -5 25 -15 44 -24 45 -8 1 -45 -13 -82 -33z"/>
<path d="M13087 746 c-121 -45 -197 -145 -197 -258 0 -67 26 -124 75 -166 48
-43 73 -52 147 -52 58 0 62 2 139 63 43 34 79 68 79 75 0 23 -30 25 -53 4 -37
-34 -100 -62 -139 -62 -61 0 -128 73 -128 140 0 19 6 20 161 20 l162 0 -6 58
c-6 70 -36 133 -76 162 -39 27 -115 35 -164 16z m75 -80 c19 -14 48 -75 48
-101 0 -12 -17 -15 -100 -15 l-100 0 0 34 c0 22 9 45 26 65 21 26 33 31 67 31
23 0 50 -7 59 -14z"/>
<path d="M13637 746 c-81 -30 -149 -95 -176 -169 -20 -53 -13 -138 15 -196 38
-75 86 -105 178 -109 l71 -4 67 51 c77 59 84 67 68 86 -10 12 -19 10 -58 -17
-56 -39 -126 -49 -165 -23 -43 28 -67 91 -67 176 0 97 23 139 75 139 48 0 100
-23 147 -65 21 -20 43 -33 48 -30 6 4 10 37 10 75 0 67 -1 68 -30 79 -55 19
-142 22 -183 7z"/>
<path d="M15757 750 c-35 -11 -136 -91 -137 -108 0 -20 29 -26 48 -9 63 55
157 61 199 12 17 -19 23 -38 23 -76 l0 -49 -103 0 -103 0 -36 -37 c-43 -45
-54 -80 -39 -126 19 -56 53 -80 119 -85 57 -4 60 -3 108 39 l49 42 3 -36 3
-37 90 0 c81 0 89 2 89 19 0 13 -11 23 -34 31 l-34 11 -4 162 c-3 179 -10 202
-71 234 -36 18 -131 26 -170 13z m101 -267 c31 -4 32 -6 32 -48 0 -39 -4 -46
-34 -64 -62 -39 -122 -23 -140 35 -8 27 11 72 33 77 22 5 69 6 109 0z"/>
<path d="M16157 724 c-38 -20 -67 -40 -64 -47 2 -7 22 -24 44 -39 36 -24 46
-42 97 -165 57 -135 58 -138 47 -191 -14 -68 -34 -110 -78 -162 -27 -32 -34
-46 -27 -57 5 -9 13 -15 18 -15 4 0 49 51 98 114 77 96 107 147 204 340 63
125 114 233 114 238 0 7 -36 10 -102 8 -94 -3 -103 -5 -106 -23 -2 -14 12 -30
48 -55 28 -18 53 -37 56 -42 4 -6 -112 -248 -119 -248 -6 0 -116 286 -128 333
-6 26 -17 47 -23 47 -6 -1 -42 -17 -79 -36z"/>
</g>
</svg>
